<?xml version="1.0" encoding="UTF-8"?>
<svg width="495px" height="190px" viewBox="0 0 495 190" version="1.1" xmlns="http://www.w3.org/2000/svg" xmlns:xlink="http://www.w3.org/1999/xlink">
    <!-- Generator: Sketch 50 (54983) - http://www.bohemiancoding.com/sketch -->
    <title>iconfinder_itunes_A_104832</title>
    <desc>Created with Sketch.</desc>
    <defs></defs>
    <g id="Page-1" stroke="none" stroke-width="1" fill="none" fill-rule="evenodd">
        <g id="iconfinder_itunes_A_104832" fill="#fff" opacity="0.75" fill-rule="nonzero">
            <path d="M145.449,62.961 C145.449,62.961 138.524,47.885 112.749,47.885 C112.749,47.885 107.187,46.817 82.364,56.025 C82.364,56.025 80.058,56.292 76.938,56.292 C73.818,56.292 60.66,48.418 47.23,48.418 C33.8,48.418 0.943,57.556 0.943,107.195 C0.943,156.835 39.217,189.241 48.357,189.241 C57.496,189.241 73.11,181.375 80.156,181.375 C87.201,181.375 106.814,188.867 113.098,188.867 C119.381,188.867 140.291,174.739 154.383,135.027 C154.383,135.027 125.281,129.862 125.281,101.388 C125.282,101.389 123.295,75.856 145.449,62.961 Z" id="Shape"></path>
            <path d="M67.977,36.438 C67.977,36.438 104.56,38.666 109.568,0.392999773 C109.568,0.392 68.538,3.688 67.977,36.438 Z" id="Shape"></path>
            <g id="Group" transform="translate(170.000000, 71.000000)">
                <path d="M17.375,8.86 C17.375,13.057 14.155,16.552 9.025,16.552 C4.135,16.552 0.915,13.057 0.915,8.86 C0.915,4.433 4.255,1.053 9.145,1.053 C14.155,1.053 17.256,4.433 17.375,8.86 Z M1.75,82.466 L1.75,24.71 L16.421,24.71 L16.421,82.465 L1.75,82.465 L1.75,82.466 Z" id="Shape"></path>
                <polygon id="Shape" points="48.267 12.922 25.366 12.922 25.366 0.918 86.077 0.918 86.077 12.922 62.937 12.922 62.937 82.465 48.267 82.465 48.267 12.922"></polygon>
                <path d="M140.939,64.994 C140.939,71.753 141.178,77.347 141.416,82.007 L128.654,82.007 L127.939,73.501 L127.581,73.501 C125.076,77.463 119.352,83.291 108.855,83.291 C98.358,83.291 88.697,77.113 88.697,58.583 L88.697,25.251 L103.368,25.251 L103.368,56.136 C103.368,65.575 106.47,71.638 114.222,71.638 C120.186,71.638 124.001,67.673 125.433,63.945 C126.03,62.778 126.269,61.148 126.269,59.515 L126.269,25.251 L140.939,25.251 L140.939,64.994 Z" id="Shape"></path>
                <path d="M156.8,42.111 C156.8,35.585 156.561,30.106 156.322,25.21 L169.085,25.21 L169.803,33.719 L170.159,33.719 C172.784,29.292 179.104,23.931 188.765,23.931 C198.902,23.931 209.397,30.339 209.397,48.285 L209.397,81.966 L194.727,81.966 L194.727,49.92 C194.727,41.762 191.627,35.585 183.635,35.585 C177.791,35.585 173.735,39.662 172.186,43.973 C171.708,45.143 171.469,46.888 171.469,48.521 L171.469,81.966 L156.8,81.966 L156.8,42.111 Z" id="Shape"></path>
                <path d="M235.397,56.529 C235.754,66.784 243.864,71.211 253.291,71.211 C260.085,71.211 264.858,70.163 269.389,68.648 L271.539,78.436 C266.531,80.535 259.608,82.051 251.264,82.051 C232.415,82.051 221.326,70.743 221.326,53.379 C221.326,37.647 231.106,22.848 249.71,22.848 C268.559,22.848 274.759,37.997 274.759,50.466 C274.759,53.147 274.523,55.245 274.281,56.529 L235.397,56.529 Z M260.922,46.506 C261.041,41.261 258.658,32.636 248.877,32.636 C239.81,32.636 235.997,40.679 235.398,46.506 L260.922,46.506 Z" id="Shape"></path>
                <path d="M285.966,67.6 C289.188,69.58 295.506,71.793 300.756,71.793 C307.196,71.793 310.06,69.114 310.06,65.385 C310.06,61.539 307.674,59.674 300.52,57.112 C289.188,53.381 284.534,47.32 284.534,40.562 C284.534,30.541 293.003,22.849 306.484,22.849 C312.923,22.849 318.528,24.363 321.987,26.228 L319.005,36.249 C316.618,34.85 311.852,32.987 306.72,32.987 C301.475,32.987 298.612,35.549 298.612,39.045 C298.612,42.659 301.352,44.29 308.748,46.973 C319.365,50.583 324.139,55.827 324.256,64.219 C324.256,74.591 316.026,82.052 300.639,82.052 C293.604,82.052 287.282,80.417 282.986,78.088 L285.966,67.6 Z" id="Shape"></path>
            </g>
        </g>
    </g>
</svg>